# xmcd CD database file
#
# Track frame offsets:
#	150
#	9875
#	19949
#	33299
#	42941
#	54574
#	64114
#	75526
#	87755
#	98742
#	112689
#	125984
#	137800
#	149484
#	162621
#	173445
#	187579
#	206310
#	220350
#	236666
#	250190
#	259913
#	271659
#	282261
#	293238
#	304018
#	327361
#	338314
#
# Disc length: 4665 seconds
#
# Revision: 0
# Processed by: cddbd v1.5.2PL0 Copyright (c) Steve Scherf et al.
# Submitted via: CDex 1.51
#
DISCID=8212371c
DTITLE=B.B. KING - Ladies - Gentlemen...(How Blue Can You Get 1962-1966)
DYEAR=2012
DGENRE=Blues
TTITLE0=You Ask Me
TTITLE1=I'm Gonna Sit In 'Til You Give In
TTITLE2=Blues At Midnight
TTITLE3=My Baby's Coming Home
TTITLE4=Chains Of Love
TTITLE5=Sneaking Around
TTITLE6=Slowly Loving My Mind
TTITLE7=How Blue Can You Get?
TTITLE8=Whole Lotta Lovin'
TTITLE9=I Wonder Why
TTITLE10=Please Accept My Love
TTITLE11=Help The Poor
TTITLE12=Never Trust A Woman
TTITLE13=Worryin' Blues
TTITLE14=Stop Leading Me On
TTITLE15=Every Day I Have The Blues(Live)
TTITLE16=Sweet Little Angel(Live)
TTITLE17=It's My Own Fault(Live)
TTITLE18=How Blue Can You Get(Live) 
TTITLE19=Please Love Me(Live)
TTITLE20=Tired Of Your Jive
TTITLE21=All Over Again
TTITLE22=I'd Rather Drink Muddy Water
TTITLE23=Cherry Red
TTITLE24=You're Still A Square
TTITLE25=Don't Answer The Door, Parts 1 - 2
TTITLE26=Waitin' On You 
TTITLE27=Night Life
EXTD=YEAR: 2012
EXTT0=
EXTT1=
EXTT2=
EXTT3=
EXTT4=
EXTT5=
EXTT6=
EXTT7=
EXTT8=
EXTT9=
EXTT10=
EXTT11=
EXTT12=
EXTT13=
EXTT14=
EXTT15=
EXTT16=
EXTT17=
EXTT18=
EXTT19=
EXTT20=
EXTT21=
EXTT22=
EXTT23=
EXTT24=
EXTT25=
EXTT26=
EXTT27=
PLAYORDER=
